<?xml version="1.0" encoding="utf-8"?>
<!-- Generator: Adobe Illustrator 19.2.1, SVG Export Plug-In . SVG Version: 6.00 Build 0)  -->
<svg version="1.1" id="layer" xmlns="http://www.w3.org/2000/svg" xmlns:xlink="http://www.w3.org/1999/xlink" x="0px" y="0px"
	 viewBox="0 0 652 652" style="enable-background:new 0 0 652 652;" xml:space="preserve">
<style type="text/css">
	.st0{fill:#243E8B;}
</style>
<g>
	<path class="st0" d="M314.8,298.8l4.3,12.6c2.2,6.2,2.8,7.2-1.1,9.2v0.3h16.4v-0.3c-4.6-2.6-6-7.6-7.9-12.7l-16.7-45.7h-12.7v0.3
		c3.9,1.3,2.3,5.1,1.2,8.3L285,307.9c-1.8,5.1-3.1,10.1-7.8,12.7v0.3H292v-0.3c-3.9-1.6-3.3-4.2-1.6-9.2l4.2-12.6H314.8z
		 M312.5,292.2h-15.8l7.9-22.5L312.5,292.2z"/>
	<path class="st0" d="M376,277.2c0.5-1.5,1-3,1-4.5v-0.1h11.4v0.2c-1.6,0.5-2,2.6-2,4.3l4.4,36c0.4,3.4,0.7,5.4,3.4,7.5v0.2h-12.7
		v-0.2c2.3-0.8,2.7-3,2.7-5.5l-3.8-35.3l-14.8,42c-3.3-2.8-4.2-4.8-5.8-8.9l-12.5-33.1l-3.8,31.5c-0.5,4.5-1,7.7,2.1,9.2v0.2h-10.8
		v-0.2c2.8-2.7,3.2-6.3,3.7-10.3l3.8-30.7c0.3-2.1,1-5-2-6.8v-0.2h11.5v0.1c0,1.2,0.5,2.3,0.9,3.3l12.4,32.3L376,277.2z"/>
	<path class="st0" d="M406.5,314.7l8.4,0.9c4.4,0.4,8.9-1.1,12.2-4.3h0.2l-3,9.6h-27.5v-0.2c3.4-1.3,3-6.7,3-10v-27.6
		c0-3.4,0.4-8.7-3-10.1v-0.2h21.1c1.1,0,2.2,0.1,3.1-0.4h0.2v8.6H421c-2-2.6-4.7-2.9-7.8-2.9c-2.3,0-4.6,0.1-6.7,0.5V292h7.9
		c1.1,0,2.1,0,2.9-0.4h0.2v7.8h-0.2c-1.1-2.1-3.8-2.1-5.9-2.1h-4.9V314.7z"/>
	<path class="st0" d="M446.6,272.6c8.8,0,13.7,5.1,13.7,11.8c0,6.5-5.1,11.5-10.5,12.9l9.5,13.3c2.8,3.8,6.9,7.6,10.7,10.3h-6.1
		c-3.5,0-5.7-1-7.7-3.7l-8-11.1l-6.1-10.3c5.3-0.9,11.4-3.6,11.4-10.5c0-5.3-4.1-8.4-8.5-8.1c-1.5,0.1-3,0.3-4.5,0.6v32.8
		c0,3.4-0.4,8.7,3,10v0.2h-12.6v-0.2c3.4-1.3,2.9-6.7,2.9-10v-27.6c0-3.4,0.5-8.7-2.9-10.1v-0.2H446.6z"/>
	<path class="st0" d="M469.3,282.9c0-3.4,0.5-8.7-2.9-10.1v-0.2h12.5v0.2c-3.3,1.4-2.9,6.8-2.9,10.1v27.6c0,3.3-0.4,8.6,2.9,10v0.2
		h-12.5v-0.2c3.3-1.3,2.9-6.7,2.9-10V282.9z"/>
	<path class="st0" d="M517.6,281.7c-3.6-2.6-7.9-4.2-12.2-4.2c-9.1,0-15.4,7.4-15.4,18c0,10.8,6.6,20.4,16.8,20.4
		c5,0,9.9-2,14.1-4.6h0.2l-3.4,8.5c-3.1,1.6-6.5,2.2-10,2.2c-15.6,0-25.2-9.7-25.2-25.4c0-15.2,9.6-25.2,23.2-25.2
		c4,0,8.1,0.8,12,1.8V281.7z"/>
	<path class="st0" d="M551.9,302.7l3.6,10.3c1.8,5.1,2.3,5.9-0.9,7.6v0.2h13.5v-0.2c-3.8-2.1-4.9-6.2-6.5-10.4l-13.7-37.6h-10.4v0.2
		c3.2,1.1,1.9,4.2,1,6.8l-11,30.6c-1.5,4.2-2.6,8.3-6.4,10.4v0.2h12.1v-0.2c-3.2-1.3-2.7-3.4-1.3-7.6l3.4-10.3H551.9z M550,297.3
		h-13l6.5-18.5L550,297.3z"/>
	<path class="st0" d="M578.6,311.3c0,4.1-0.1,7,3.4,9.3v0.2h-11.7v-0.2c3.5-2.3,3.5-5.2,3.5-9.3v-29.3c0-4.1,0-7-3.4-9.2v-0.2h9.6
		v0.1c0.3,0.9,0.5,1.2,1,1.8l0.9,1.5l24.2,33.9v-27.8c0-4.1,0.1-7-3.4-9.2v-0.2h11.6v0.2c-3.4,2.2-3.4,5.1-3.4,9.2v41.1
		c-4.7-1.8-6.7-4.2-9.6-8.4l-22.6-31.9V311.3z"/>
	<path class="st0" d="M294.3,341.1c2.1-3.3,5.9-7.7,1.7-9.9V331h11.5v0.1L292.7,352l12.9,18.8c2,2.9,4.4,4.9,7.7,6.7v0.2h-6
		c-3.1,0-6.1-1.3-7.2-3.1l-14.2-21.2L294.3,341.1z M278.5,341c0-3.2,0.4-8.4-2.9-9.7V331h12.3v0.2c-3.3,1.3-2.9,6.5-2.9,9.7v26.8
		c0,3.3-0.4,8.4,2.9,9.8v0.2h-12.3v-0.2c3.3-1.3,2.9-6.6,2.9-9.8V341z"/>
	<path class="st0" d="M321.5,372.8l6.7,0.7c3.5,0.4,7.1-0.9,9.7-3.4h0.2l-2.4,7.6h-21.9v-0.2c2.7-1.1,2.4-5.4,2.4-8v-22
		c0-2.7,0.3-6.9-2.4-8.1v-0.2h16.8c0.9,0,1.8,0.1,2.5-0.3h0.2v6.8h-0.2c-1.6-2.1-3.8-2.3-6.2-2.3c-1.8,0-3.7,0.1-5.4,0.4v10.9h6.3
		c0.8,0,1.7,0,2.3-0.3h0.2v6.2h-0.2c-0.8-1.7-3-1.6-4.7-1.6h-3.9V372.8z"/>
	<path class="st0" d="M347.2,370.1c0,3.3-0.1,5.6,2.7,7.4v0.2h-9.3v-0.2c2.8-1.8,2.8-4.1,2.8-7.4v-23.3c0-3.3,0-5.6-2.7-7.4v-0.2
		h7.7v0.1c0.2,0.7,0.4,1,0.8,1.5l0.7,1.2l19.2,27v-22.1c0-3.3,0.1-5.6-2.7-7.4v-0.2h9.2v0.2c-2.7,1.7-2.7,4.1-2.7,7.4v32.8
		c-3.7-1.4-5.4-3.3-7.7-6.7l-18-25.4V370.1z"/>
	<path class="st0" d="M385,370.1c0,3.3-0.1,5.6,2.7,7.4v0.2h-9.3v-0.2c2.8-1.8,2.8-4.1,2.8-7.4v-23.3c0-3.3,0-5.6-2.7-7.4v-0.2h7.7
		v0.1c0.2,0.7,0.4,1,0.8,1.5l0.7,1.2l19.2,27v-22.1c0-3.3,0.1-5.6-2.7-7.4v-0.2h9.2v0.2c-2.7,1.7-2.7,4.1-2.7,7.4v32.8
		c-3.7-1.4-5.4-3.3-7.7-6.7l-18-25.4V370.1z"/>
	<path class="st0" d="M424.5,372.8l6.7,0.7c3.5,0.4,7.1-0.9,9.7-3.4h0.2l-2.4,7.6h-21.9v-0.2c2.7-1.1,2.4-5.4,2.4-8v-22
		c0-2.7,0.3-6.9-2.4-8.1v-0.2h16.8c0.9,0,1.8,0.1,2.5-0.3h0.2v6.8h-0.2c-1.6-2.1-3.8-2.3-6.2-2.3c-1.8,0-3.7,0.1-5.4,0.4v10.9h6.3
		c0.8,0,1.7,0,2.3-0.3h0.2v6.2h-0.2c-0.8-1.7-3.1-1.6-4.7-1.6h-3.9V372.8z"/>
	<path class="st0" d="M459,373.5c3.6,0.2,6.7-1.1,9.3-3.6h0.2l-2.7,7.8h-21.6v-0.2c2.7-1.1,2.4-5.4,2.4-8v-22c0-2.7,0.3-6.9-2.4-8.1
		v-0.2h10v0.2c-2.7,1.1-2.3,5.4-2.3,8.1V373L459,373.5z"/>
	<path class="st0" d="M519.3,339.8c-3.5-2.5-7.6-4-11.8-4c-8.8,0-14.9,7.2-14.9,17.5c0,10.4,6.4,19.7,16.2,19.7
		c4.8,0,9.6-1.9,13.6-4.5h0.2l-3.3,8.2c-3,1.6-6.3,2.1-9.6,2.1c-15.1,0-24.4-9.4-24.4-24.6c0-14.7,9.3-24.4,22.4-24.4
		c3.9,0,7.9,0.8,11.6,1.8V339.8z"/>
	<path class="st0" d="M539.4,373.5c3.6,0.2,6.7-1.1,9.3-3.6h0.2l-2.7,7.8h-21.6v-0.2c2.7-1.1,2.4-5.4,2.4-8v-22
		c0-2.7,0.3-6.9-2.4-8.1v-0.2h10v0.2c-2.7,1.1-2.3,5.4-2.3,8.1V373L539.4,373.5z"/>
	<path class="st0" d="M575.7,373.9c-2.3,3.4-6.6,4.8-10.3,4.8c-3.5,0-7.1-1.2-9.5-4.1c-2.8-3.4-2.7-7.3-2.7-11.5v-15.6
		c0-2.6,0.4-6.9-2.3-8v-0.2h10v0.2c-2.6,1.1-2.3,5.4-2.3,8v15.6c0,7.8,2.9,11.4,8.4,11.4c2.9,0,5.9-1.3,7.7-4.1
		c1.2-1.7,1.1-3.2,1.1-5.3v-17.6c0-2.6,0.3-6.9-2.3-8v-0.2h10l0.1,0.2c-2.7,1.1-2.4,5.4-2.4,8.1v22c0,2.6-0.3,6.9,2.4,8v0.2h-7.7
		V373.9z"/>
	<path class="st0" d="M595,354.8v-11.4l3.5-0.4c3.2-0.4,6.5,1.7,6.5,5.8c0,4.8-4.9,6.1-8.3,6.1H595z M589.7,369.5
		c0,2.7,0.3,7-2.3,8.1v0.2h8.7c3.9,0,8.1,0.2,11.8-1.8c3.5-1.9,6.3-5.7,6.3-10.2c0-5.7-3.8-9.2-8.6-10.3c3-1.5,5.3-3.7,5.3-7.6
		c0-5.2-4-8.5-11-8.5h-12.5v0.2c2.7,1.1,2.3,5.4,2.3,8V369.5z M595,373.1v-14.4l3.7-0.2c4.6-0.3,9.6,2.2,9.6,7.8
		c0,5.5-4.4,7.8-8.7,7.3L595,373.1z"/>
	<path class="st0" d="M616.3,342.5h0.4c0.4,0,0.7-0.1,0.7-0.5c0-0.3-0.2-0.5-0.7-0.5c-0.2,0-0.3,0-0.4,0V342.5z M616.3,344.3h-0.7
		v-3.2c0.3-0.1,0.7-0.1,1.2-0.1c0.6,0,0.9,0.1,1.1,0.2c0.2,0.1,0.3,0.4,0.3,0.7c0,0.4-0.3,0.6-0.7,0.7v0c0.3,0.1,0.5,0.4,0.6,0.8
		c0.1,0.5,0.2,0.7,0.2,0.8h-0.8c-0.1-0.1-0.2-0.4-0.3-0.8c-0.1-0.4-0.3-0.5-0.7-0.5h-0.4V344.3z M614.3,342.6c0,1.4,1.1,2.6,2.5,2.6
		c1.4,0,2.4-1.1,2.4-2.5c0-1.4-1-2.6-2.5-2.6C615.4,340,614.3,341.2,614.3,342.6 M620.1,342.6c0,1.8-1.4,3.2-3.3,3.2
		c-1.8,0-3.3-1.4-3.3-3.2c0-1.8,1.5-3.2,3.3-3.2C618.7,339.4,620.1,340.8,620.1,342.6"/>
	<path class="st0" d="M92.7,297.1l-5.8,28c2.4-0.1,4.1,0.2,6.2,0C93,315.8,93.5,306.2,92.7,297.1"/>
	<path class="st0" d="M193.7,356.5c-4.1,7.3-10,14.3-16.8,20.2c-2.6-1-3.6-4.1-5-6.2c-13.3-25.1-12.6-61.1-2-87.1
		c1.7-3.4,3.2-7,5.9-10c2.4,0.5,4.5,3.1,6.3,5.1c4.4,5.6,6.6,12.3,9.5,18.5c1.1,0.4,1.3-0.8,2.2-0.6c-2.2,6.7-2.8,14.1-4.3,21.2
		c-2.8-13.3-3.7-27.4-12.1-38.4c-0.6-0.1-1,0.2-1.4,0.7c-4.4,26.8-5,56.2-1,83.4c0.8,2.7,0.7,6,2.4,8.2c7.9-6.8,12.3-15.8,15.8-24.8
		c1-1.4,3.1-0.7,4.5-0.6C197.4,349.9,195.2,353.1,193.7,356.5 M162.1,387.1c-4.6,0-8-2.5-11.7-4.9c-3.2,1.8-4.3,6.5-8.2,7.5
		c1.2-19.2,1.9-40-4.3-57.3c-1.5-2.8-2.7-6.3-6-7.8c-1.5-0.6-3.1,0.8-3.7,2.2c-1.6,5.9-1,13.2-0.6,19.5l6.1,44.2
		c0.5,1.1,0.7,2.3,0.6,3.5c-5.1-2.7-6.5-8.3-10.2-12.3h-0.8c-2.2,2.4-3.7,5.3-6.8,6.4l-0.3-0.6l4.6-46.9c0.1-23.2,1.7-48.6-5.8-69.4
		c-1-3.7-2.7-7.1-3.1-11c3.3,0.2,5.7,3.9,8.8,5.3l1.7-0.4l10.7-10.2h0.7c-0.4,7.6-2,15-2.8,22.7c-1.3,13.1-2.9,26.2-3.1,39.7
		c0.4,0.6,0.2,1.9,1.3,1.6c4.5-6.7,6.3-14.4,9.2-21.7c4.1-12.3,5.8-25.7,6.1-39.5c2.8,0.6,3.8,3.8,5.4,5.8c1,1.5,1.5,3,2.9,4.3
		c2.2,0.1,3.7-1.5,5.6-1.9c2.6-0.6,5.4-1.2,8-1c-12.6,16.7-23.2,34.2-31,52.8l0.2,1.4c14.6,15.5,11.9,38.2,21,56
		c1.8,3.7,3.4,7.5,6,10.9C162.8,386.4,162.7,387.1,162.1,387.1 M108.3,386.3l-9.4-11.5c-2.9-1.1-4.2,3.5-7,2.8l-0.4-1.2
		c2.9-13.6,1.9-29.2,1.5-43.6c-1.6-1.7-4.6-0.8-6.8-0.8l-1.1,1.2c-1.8,10-3.7,19.9-5,30c-0.8,0.1-1-0.8-1.2-1.3
		c-1.2-4.1-1.3-8.6-3.6-12.1c-2-0.1-5.4,1.2-6.3-1.2c1.3-3.3,4.3-5.9,5.7-9.1c10.2-21.1,14.3-44.7,17.5-68.6c1.7-0.5,2,1.9,3.2,2.7
		h0.6c2.4-3.7,3.2-8.4,7.6-11c0.2,2.1-1.1,4.1-1.4,6.2l-1.4,14.9l-0.4,41.3c1,21.4,5.4,41.7,9,62L108.3,386.3z M205.6,304.3
		c-6.1-25.7-31.8-49.6-57.9-53.4c-31.7-5.5-61.5,8.5-77.6,36.1c-12.7,21-12.4,53,0.6,73.7c5.4,9.9,14.9,19.2,24.3,25.3
		c22.6,15.4,59.3,15.3,81.3-1.1C202.5,366.5,213.6,335.3,205.6,304.3"/>
	<path class="st0" d="M132.8,430.3c-0.1-0.4-0.2-0.9,0.3-0.9c3.4-0.8,6.3,1.6,8.2,4.2c0.3,0.5,0.7,0.9,0.5,1.5
		c-1.5,1.4-3.6,0.1-5.2-0.2C134.9,433.8,133.8,432,132.8,430.3"/>
	<path class="st0" d="M125.7,431.1c-0.1-0.7-0.7-1.2-0.7-2c2.2-0.6,4.6,0.3,6.3,2c1.3,1,1.9,2.4,2.6,3.7c-0.7,1.4-2.8,0.8-3.9,0.5
		C128.1,434.9,126.8,432.7,125.7,431.1"/>
	<path class="st0" d="M120.9,433.9c-1.5-1.7-3-3.4-3.1-5.7c3.1-0.7,5.7,1.5,7.4,4c0.1,0.9,2,2.2,0.3,2.9
		C123.7,435.5,122.2,434.9,120.9,433.9"/>
	<path class="st0" d="M140.4,429.7v-0.3c2.7-1,5.2,0.2,7.3,1.7c0.9,1,2.4,2,2.1,3.2c-1.4,1.2-3.6,0.5-5.2,0
		C142.8,433.4,141.2,431.6,140.4,429.7"/>
	<path class="st0" d="M112.6,432c-0.9-1.6-2.1-3-2.1-5c1.7-0.3,3.6,0.2,4.8,1.4c1.6,1.5,2.7,3.2,3.2,5.2c-0.1,0.5-0.7,0.7-1.1,0.8
		C115.6,434.2,114,433.4,112.6,432"/>
	<path class="st0" d="M148.4,429.4c-0.2-1.3,1.6-0.8,2.4-1.1c3,0,5.3,1.7,7.3,4c0.3,0.9-0.8,1.1-1.3,1.4
		C152.9,434.7,150.4,431.8,148.4,429.4"/>
	<path class="st0" d="M104.7,429.2c-0.4-1.3-1.3-2.5-1.1-4c1.4-0.4,2.8,0.3,3.8,1c2.2,1.5,3,3.8,3.8,6.1c-0.4,1.1-2,0.7-2.8,0.3
		C107,432,105.3,430.7,104.7,429.2"/>
	<path class="st0" d="M155.8,427.6c1.5-1.1,3.6-0.7,5.3-0.3c1.8,0.8,4,1.8,4.7,3.9c-1.5,1.1-4.1,1.3-5.9,0.5
		C158.5,430.5,156.4,429.6,155.8,427.6"/>
	<path class="st0" d="M97.1,426.6c-0.5-1.3-0.9-3-0.5-4.2c2.2,0.3,4.1,1.8,5.3,3.8c0.6,1.4,1.3,2.8,1.4,4.3
		c-0.9,0.8-2.4,0.2-3.4-0.3C98.6,429.5,97.7,428,97.1,426.6"/>
	<path class="st0" d="M163.2,426.3c0-1,1.3-0.8,2-1.3c3.4-0.4,6,1,8.3,3.2c-0.1,1.5-1.7,1.3-2.8,1.8
		C167.5,430.5,165.2,428.3,163.2,426.3"/>
	<path class="st0" d="M90.3,424.8c-0.5-1.6-1-3.2-0.8-5.1c2.1-0.2,4.1,1.8,5.2,3.7c0.5,1.5,1.6,3.4,0.9,5
		C93.3,428.6,91.4,426.8,90.3,424.8"/>
	<path class="st0" d="M170.4,423.9c0.3-0.8,1.3-0.9,2-1.3c3.2-0.7,6.1,0.8,8.4,2.8c-0.1,1.1-1.5,1.7-2.6,1.9
		C174.9,427.9,172.4,426,170.4,423.9"/>
	<path class="st0" d="M83.4,421.6c-0.1-1.7-1.1-3.4-0.5-5.3c2.1,0.3,4,2.1,4.8,4c0.5,1.6,1.5,3.6,0.6,5.2
		C86,425.6,84.4,423.5,83.4,421.6"/>
	<path class="st0" d="M177.6,421.1c0.1-1.2,1.7-0.9,2.4-1.6c3.1-0.6,5.9,0.8,8.1,2.6c-0.6,1.9-2.7,1.6-4.2,2.1
		C181.4,424.1,179.2,422.8,177.6,421.1"/>
	<path class="st0" d="M78.2,420.3c-1.8-2-2-5-1.4-7.6c1.8,0.2,3.9,2.2,4.5,4c0.3,1.7,1.3,3.6,0.5,5.4
		C80.3,422.3,79.2,421.4,78.2,420.3"/>
	<path class="st0" d="M184.7,417.8c0.1-1.1,1.5-1.2,2.4-1.8c2.9-0.7,5.5,0.4,7.9,1.6c0.6,1.1-1,2-1.7,2.3
		C190.1,421.3,187,419.4,184.7,417.8"/>
	<path class="st0" d="M70.8,415.1c-0.9-1.9-1.1-4.5-0.5-6.6c1.1-0.2,2.2,0.9,3,1.7c1.5,2.2,2.3,5,1.5,7.8
		C73,418.3,71.8,416.5,70.8,415.1"/>
	<path class="st0" d="M191.2,413.9c1.7-2.3,4.9-2.4,7.5-1.7c1.1,0.5,3.6,0.4,2.8,2.2c-1.8,1.8-4.5,2.2-6.9,1.5
		C193.3,415.4,192,414.9,191.2,413.9"/>
	<path class="st0" d="M64.4,410.5c-0.6-2-1-5.2,0.3-6.9c3.2,1.6,4,5,4,8.3l-0.5,1.6C66.4,413.9,65.1,411.7,64.4,410.5"/>
	<path class="st0" d="M197.4,409.8c1.3-2.2,3.8-2.6,6.3-2.6c1.5,0.1,2.8,0.4,4,1.1c0.5,1-0.8,2-1.6,2.4
		C203.5,412.4,199.8,411.4,197.4,409.8"/>
	<path class="st0" d="M58,404.6c-0.3-2-0.1-4.2,0.7-5.9c1.3-0.3,2.6,1.5,3,2.6c0.8,2.2,1.3,5.2,0.2,7.4
		C59.9,408.3,58.6,406.4,58,404.6"/>
	<path class="st0" d="M203.4,405.2c0.7-1.6,2.4-2.2,3.7-2.8c2.2-0.2,4.8-0.5,6.7,0.8c-0.3,2.4-3,3-4.8,3.6
		C207,406.4,205,406.4,203.4,405.2"/>
	<path class="st0" d="M52.9,400.6c-1.1-2.5-0.5-5.4,0.8-7.5c1.2,0.3,2,1.5,2.4,2.6c1,2.2,1,5.5,0,7.6
		C54.5,403.6,53.5,401.7,52.9,400.6"/>
	<path class="st0" d="M209.1,400c0.8-1.7,2.6-2.4,4-3.1c1.9-0.1,4.3-0.5,6,0.3c0.6,1.4-1.1,2.6-2.1,3.2
		C214.6,402,211.1,401.1,209.1,400"/>
	<path class="st0" d="M46.9,392.7c-0.1-2.3,0.4-4.6,1.9-6c1.8,1.5,2.5,3.6,2.6,5.8c-0.1,1.8-0.4,3.8-1.5,4.8
		C48,396.7,47.2,394.6,46.9,392.7"/>
	<path class="st0" d="M214.6,394.5c0.9-2.6,3.6-3.4,5.9-3.8c1.5-0.1,2.9-0.1,4,0.6c-0.1,2.2-2.5,3.5-4.3,4
		C218.2,395.3,216.1,395.5,214.6,394.5"/>
	<path class="st0" d="M42.1,386.7c-0.2-2.4,0.8-4.4,2.1-6.3c1.7,1.3,2.3,3.4,2.4,5.5c-0.1,1.9-0.5,3.6-1.5,5.2
		C43,390.8,42.4,388.5,42.1,386.7"/>
	<path class="st0" d="M219.2,388.8c0.8-2.6,3.8-4.1,6.5-4.4c1.1,0.2,2.6-0.4,3.2,0.5c0.2,2-1.5,2.7-2.9,3.8
		C224.1,389.8,221.1,389.8,219.2,388.8"/>
	<path class="st0" d="M37.8,381.6c-0.5-2.9,0.7-5.8,2.6-7.6c2.2,2.5,2,6.4,0.8,9.2c-0.4,0.5-0.5,1.3-1.1,1.5
		C38.8,384.2,38.3,382.7,37.8,381.6"/>
	<path class="st0" d="M223.7,382.8c0.1-1.7,1.8-3.4,3.6-4.2c1.8-0.5,3.5-1,5.5-0.8c0.5,0.5,0.4,1.5,0,2
		C231.1,383.2,226.8,383.3,223.7,382.8"/>
	<path class="st0" d="M34,375.1c-0.8-3.1,0.7-5.9,2.7-7.9c1.9,1.5,1.8,4.6,1.3,6.9c-0.5,1.3-0.9,3-2.2,3.7
		C34.6,377.5,34.4,376.1,34,375.1"/>
	<path class="st0" d="M227.6,376.4c0.2-1.7,1.7-3.4,3.2-4.3c1.8-0.7,3.6-1.3,5.7-1.3c0.7,0.7,0.1,1.7-0.1,2.4
		C234.6,376.4,230.9,376.7,227.6,376.4"/>
	<path class="st0" d="M30.6,368.6c-1.1-3.4,0.9-6.1,2.9-8.2c1.1,0.3,1.3,1.8,1.6,2.9c0.3,3-0.9,5.2-2.6,7.4
		C31.3,370.8,31.1,369.4,30.6,368.6"/>
	<path class="st0" d="M231.2,369.4c0.6-3.2,3.8-5.3,6.8-5.8h1.9c0.3,1.3-0.3,2.7-1.3,3.7C236.7,369.4,233.8,370,231.2,369.4"/>
	<path class="st0" d="M27.7,362c-1.3-3.6,0.7-6.5,2.9-9l0.5-0.2c1.4,1.4,1.3,4.1,0.8,6C31,360.1,29.9,365.3,27.7,362"/>
	<path class="st0" d="M234.4,362.5c-0.1-1.3,0.6-2.8,1.6-3.8c1.8-1.7,3.9-2.7,6.3-3c0.9,0.5,0.4,1.9,0.2,2.6
		C241.1,361.6,237.5,362.4,234.4,362.5"/>
	<path class="st0" d="M24.9,353.8c-0.7-3.6,1.6-6.6,4.2-8.4c2.1,3.6-0.2,7.4-2.4,10.2C25.5,356,25.3,354.5,24.9,353.8"/>
	<path class="st0" d="M236.9,354.9c0.1-3.5,3.6-5.9,6.6-6.9c0.5-0.3,1.6-0.2,1.6,0.7c0.1,2.4-1.9,4.6-4,5.7
		C239.7,354.6,238.2,355.5,236.9,354.9"/>
	<path class="st0" d="M238.9,347.8c-0.1-3,2.2-5.6,4.7-6.9c0.8-0.4,1.8-0.9,2.7-0.7c0.5,1.7-0.1,3.2-0.9,4.5
		C243.7,346.6,241.3,347.8,238.9,347.8"/>
	<path class="st0" d="M23,346.6c-0.7-3.6,1.4-6.7,4.4-8.6c0.7,0.1,0.8,1.1,1,1.8c0.4,3.4-1.7,6.1-3.9,8.1
		C23.5,348.2,23.4,347,23,346.6"/>
	<path class="st0" d="M240.6,338.1c0.9-2.8,3.6-5.1,6.3-6c1.3,0.5,0.8,2.5,0.5,3.4c-0.8,3.1-4.2,4.4-6.8,4.8V338.1z"/>
	<path class="st0" d="M21.6,338.9c-0.1-1.8-0.1-3.9,1.1-5.3c1.2-1.2,2.4-2.8,4-3.1c1,2.4,0.3,5.2-1.3,7.1
		C24.5,338.5,22.5,341.8,21.6,338.9"/>
	<path class="st0" d="M241.4,332.5c-0.2-2.4,0.8-4.2,2.3-5.9c1.1-1.1,2.5-2.1,4-2.4c1.1,2,0.1,4.2-1,5.9c-1.5,1.3-3.1,2.5-5,2.9
		L241.4,332.5z"/>
	<path class="st0" d="M20.6,331.2c-0.5-3.8,2.5-6.5,5.4-8.1c0.7-0.1,0.5,0.7,0.8,1.1c0.4,3.6-2.3,6.3-4.8,8.3
		C21.1,332.5,20.6,331.9,20.6,331.2"/>
	<path class="st0" d="M242,325c-1-3.6,1.3-6.5,4-8.5c0.4-0.3,0.9-0.5,1.6-0.5c1,2,0.2,4.3-0.8,6C245.3,323.1,244.1,325,242,325"/>
	<path class="st0" d="M20.1,322.8c0.1-1.9,0.5-3.7,2-5c1.3-1,2.6-2.1,4.2-2.6c1.3,2-0.1,4.4-1.3,6.1c-1.1,1.2-2.2,2.2-3.6,2.9
		C20.4,324.4,20.3,323.4,20.1,322.8"/>
	<path class="st0" d="M241.5,315.3c0.1-3.2,2-5.8,4.7-7.5c0.7-0.1,1.3,0.5,1.3,1.3c0.1,1.8,0,3.6-1.1,5
		C245,315,241.4,319.8,241.5,315.3"/>
	<path class="st0" d="M20.3,314.9c0.1-2,0.7-3.8,2.4-5.2c1.4-0.9,2.7-2.1,4.5-2.1c0.2,1.9-0.3,3.8-1.5,5.3c-1.5,1.5-3.2,3-5,3.1
		L20.3,314.9z"/>
	<path class="st0" d="M240.7,307.5c0.1-3.1,2-5.6,4.4-7.6c0.9-0.2,0.9,0.9,1.3,1.3c0.7,3.5-1.4,6.5-4.3,8.4
		C240.8,310.1,240.9,308.3,240.7,307.5"/>
	<path class="st0" d="M21.1,307.1c0-2.5,1.4-5,3.8-6c1.1-0.4,2.4-1.4,3.6-0.8c0.2,3.2-2.4,5.8-5,7.3C22.6,307.9,21,308.9,21.1,307.1
		"/>
	<path class="st0" d="M239.4,299.5c0.3-3,1.7-6.3,4.4-7.4c1.1,1.2,1.3,3,0.9,4.6C244.3,298.4,239.5,306.1,239.4,299.5"/>
	<path class="st0" d="M22.5,300.2c-0.5-1.6,0.3-3.1,1-4.4c1.8-1.9,4.1-3.2,6.6-3.1c0.2,3.1-2.5,5.7-5,7
		C24.3,299.8,23.4,300.7,22.5,300.2"/>
	<path class="st0" d="M238,288.9c0.7-1.6,1.4-3.2,2.9-4.5c1.3-0.1,1.4,1.4,1.7,2.2c0.7,3.5-1.4,6-3.8,8.1
		C237.3,293.5,237.5,290.7,238,288.9"/>
	<path class="st0" d="M24.3,290.2c0.9-3.4,4.6-4.5,7.9-4.8c0.3,2.4-1.5,4.6-3.7,5.8C27.3,291.8,22.5,294.3,24.3,290.2"/>
	<path class="st0" d="M235.2,281.7c0.8-1.8,1.1-3.9,2.9-5.2c0.9,0.3,1.4,1.2,1.6,2c1,3.6-1.1,6.5-3.4,8.5
		C235.2,285.8,234.8,283.7,235.2,281.7"/>
	<path class="st0" d="M26.4,283.7c0.3-1.9,1.6-3.6,3.4-4.7c1.7-0.6,3.5-1.2,5.3-0.9c0.1,2.7-2.4,4.8-4.6,5.7
		C29.4,284.4,26.7,285.2,26.4,283.7"/>
	<path class="st0" d="M232.3,277.6c-0.7-3,0.7-5.6,2.1-7.9c1.1-0.6,1.7,1.1,2.1,1.8c1.3,3.3-0.6,6.3-2.8,8.5
		C233,279.5,232.5,278.4,232.3,277.6"/>
	<path class="st0" d="M29.3,276.3c0.3-1.9,1.8-3.7,3.6-4.6c1.7-0.4,3.8-1.3,5.7-0.5c-0.4,1.8-1.6,3.4-3.2,4.4
		c-1.7,0.8-3.4,1.5-5.5,1.5L29.3,276.3z"/>
	<path class="st0" d="M228.8,270c-0.5-2.8,0.6-5.1,1.7-7.3c1.7-0.6,2.1,1.7,2.6,2.8c0.6,2.9-0.9,5.3-2.4,7.6
		C229.7,272.6,229,271.1,228.8,270"/>
	<path class="st0" d="M32.7,269.2c0.4-1.6,1.6-3.4,3.2-4c1.8-0.9,4.3-1.1,6.3-0.5c-0.7,3.1-4,4.8-6.9,5.2
		C34.3,269.4,32.9,270.8,32.7,269.2"/>
	<path class="st0" d="M224.9,263.4c-0.7-2.8,0.4-5.2,1.3-7.5c1.4-0.7,2.1,1.3,2.6,2.1c1.3,3-0.2,6-1.8,8.4
		C225.8,265.9,225.3,264.4,224.9,263.4"/>
	<path class="st0" d="M36.6,262.4c0.3-1.7,1.9-3.3,3.4-4c2-0.5,4.6-1.2,6.5,0c-1.5,3.8-5.5,4.8-9.4,4.7L36.6,262.4z"/>
	<path class="st0" d="M220.2,254.5c0-2,0.5-3.8,1.4-5.2c1.3,0.1,2.1,1.5,2.6,2.6c1.2,2.8,0,5.8-1.5,8.1
		C221,258.8,220.4,256.6,220.2,254.5"/>
	<path class="st0" d="M41.1,256.4c-0.8-1.8,1.4-3.1,2.6-4c2-0.9,5.1-0.9,7.1,0C49.4,256.4,44.9,256.8,41.1,256.4"/>
	<path class="st0" d="M215.7,244c0.2-0.5,0.3-0.9,0.8-0.8c1.5,0.1,2.2,1.7,2.8,2.9c0.8,2.6,0.1,5.6-1.3,7.6
		C215,251.5,214.7,247.3,215.7,244"/>
	<path class="st0" d="M45.8,249.3c0.5-2.2,2.8-3.4,4.8-3.7c1.9,0,3.8-0.2,5.3,0.8c-0.5,2.5-3.3,3.2-5.3,3.7
		c-1.6,0.2-3.1,0.1-4.5-0.3L45.8,249.3z"/>
	<path class="st0" d="M209.5,241c0.3-1.2-0.1-2.9,1-3.7c1.3,0.1,2.6,1.6,3,2.8c1.3,2.4,0.5,5.6-0.6,7.6
		C210.4,246.5,209.7,243.7,209.5,241"/>
	<path class="st0" d="M51.1,243.5c0.1-2,2.2-2.6,3.6-3.4c2.4-0.4,4.8-0.1,6.8,0.9c-0.3,1.2-1.6,2.1-2.6,2.6
		C56.7,244.5,53.2,244.7,51.1,243.5"/>
	<path class="st0" d="M203.9,236.9c-0.2-1.5-0.4-3.8,0.8-4.7c1.7,0.2,2.6,2,3.4,3.2c0.8,2.2,0.6,5-0.5,7
		C205.2,241.6,204.4,239,203.9,236.9"/>
	<path class="st0" d="M56.8,237.7c0.9-2,3.1-2.9,5.2-3.1c1.7,0.5,3.7,0.3,5.2,1.5c0.1,1-1.5,2-2.4,2.4
		C62,239.1,58.7,239.4,56.8,237.7"/>
	<path class="st0" d="M197.6,230.9l0.1-3.2c1.3-0.7,2.2,0.8,3.2,1.5c2,2.2,1.6,5.4,0.9,8.2C199,236.7,198,233.5,197.6,230.9"/>
	<path class="st0" d="M62.9,232.8c0.4-2.1,2.8-2.8,4.7-3.1c2.1,0.2,4.1,0.7,5.8,2c-0.4,1.1-1.8,1.9-2.9,2.3
		C67.9,234.7,64.9,234,62.9,232.8"/>
	<path class="st0" d="M191,226.2c0.2-1.1-0.4-2.5,0.5-3.1c1.7-0.1,3,1.6,3.9,2.9c0.9,2,1.4,4.6,0.5,6.8
		C192.7,232.2,191.5,228.9,191,226.2"/>
	<path class="st0" d="M69.2,228.4c-0.5-1.2,0.9-1.8,1.7-2.4c3-1.5,6.3,0,8.7,1.8c-0.7,1-2.2,1.7-3.4,2.1
		C73.6,230.3,71.4,229.5,69.2,228.4"/>
	<path class="st0" d="M184.8,224.9c-0.7-1.7-1.3-3.4-1.1-5.4c0.7-0.7,1.6-0.1,2.3,0.1c3.1,1.8,3.4,5.2,3.6,8.4
		c-0.6,1.3-1.9-0.3-2.8-0.5L184.8,224.9z"/>
	<path class="st0" d="M76.1,223.9c-0.5-0.8,0.5-1.5,1.1-2c3-1.4,6.6-0.3,9,1.6l0.3,0.5C83.9,227,79.1,225.6,76.1,223.9"/>
	<path class="st0" d="M177.1,219.9c-0.5-1.2-1.3-3.6,0-4.2c1.7,0.3,3.6,1.5,4.5,3.2c0.7,1.7,1.3,3.8,0.8,5.8
		C179.8,224.5,178,222.1,177.1,219.9"/>
	<path class="st0" d="M83.1,219.9c-0.1-1.3,1.3-1.5,2.1-2c3-0.9,6.3,0.7,8.4,2.9c-0.7,1.1-2.2,1.3-3.4,1.6
		C87.4,222.5,85.2,221.4,83.1,219.9"/>
	<path class="st0" d="M169.1,215.4c0.1-0.9-0.9-2,0.3-2.4c1.7,0,3.1,1,4.4,2.2c1.3,1.9,2.3,4.2,1.6,6.5
		C172.2,221.4,170.2,218.1,169.1,215.4"/>
	<path class="st0" d="M90.3,216.7c-0.1-1.1,1.1-1.5,2-1.7c3.4-0.9,6.1,1.1,8.4,3.2c-0.2,0.8-1.5,0.9-2.3,1.4
		C95.1,220,92.8,218.4,90.3,216.7"/>
	<path class="st0" d="M162.7,215.2l-1.4-4c1.8-1.4,3.4,0.5,4.8,1.3c1.6,1.6,2.2,3.8,2.6,5.9c-0.8,1.1-2.2,0-3.2-0.3L162.7,215.2z"/>
	<path class="st0" d="M97.7,213.8c0.1-1.3,1.5-1.2,2.3-1.6c3.4-0.5,6.4,1.6,7.9,4.4C104.3,218.5,100.2,216.6,97.7,213.8"/>
	<path class="st0" d="M154,211.3c-0.2-0.9-1.2-1.9,0.1-2.4c2.5,0,5,1.5,6,3.8c0.4,1.3,1.4,2.8,0.8,4
		C157.7,216.9,155.3,214,154,211.3"/>
	<path class="st0" d="M105.7,211.7c-0.2-1.2,1.1-1.3,1.8-1.6c3.5-0.5,6.3,1.5,8.1,4.3c-0.1,0.9-1.3,1-2.2,1.1
		C110.2,215.5,107.8,214,105.7,211.7"/>
	<path class="st0" d="M145.9,210.2c-0.3-0.9-1.3-2.5,0.5-2.6c1.7,0.2,3.3,0.6,4.5,1.9c1.2,1.7,2.6,3.4,2.6,5.5
		C150.2,215.5,147.4,212.9,145.9,210.2"/>
	<path class="st0" d="M113.8,209.9c-0.3-0.7,0.5-1.2,0.9-1.3c2.2-0.5,4.2,0.1,5.9,1.3c1.1,1.2,2.7,2.2,2.8,3.9
		C119.5,215.3,116,212.8,113.8,209.9"/>
	<path class="st0" d="M138.1,209.4c-0.2-0.6-0.8-1-0.6-1.7c1.7-1.1,4-0.3,5.4,0.8c1.5,1.6,3,3.4,3.1,5.4c-1.9,0.2-4-0.1-5.5-1.6
		L138.1,209.4z"/>
	<path class="st0" d="M121.7,208.6c-0.2-0.7,0.7-0.9,1.1-1.1c3.9-0.8,6.3,2.3,8.1,5c0.1,0.2,0.3,0.5,0.2,0.8
		c-2.3,0.7-4.7,0.1-6.5-1.3C123.4,211.1,122.3,209.9,121.7,208.6"/>
	<path class="st0" d="M129.6,208.3c-0.3-0.9,0.7-1.2,1.3-1.3c1.9,0.1,3.8,0.2,5,1.7c1,1.5,2.7,3,2.6,4.7
		C134.5,214.2,131.4,211.3,129.6,208.3"/>
</g>
<polygon class="st0" points="49.4,348.6 47.3,354.5 41.1,354.5 46.1,358.1 43.9,364.2 49.4,360.4 55,364.2 52.8,358.1 57.8,354.5 
	51.6,354.5 "/>
<polygon class="st0" points="219.6,349.8 217.4,355.7 211.3,355.7 216.3,359.3 214,365.4 219.6,361.6 225.2,365.4 223,359.3 
	227.9,355.7 221.8,355.7 "/>
<g>
	<path class="st0" d="M46.2,327.7l2.5-1.3c0.7-0.4,1.2-0.2,1.3,0.2l0.2,1.2l0.8-0.1c-0.2-1.5-0.3-2.7-0.4-3.6
		c-0.1-0.9-0.2-2-0.3-3.6l-0.8,0.1l0,0.6c0,0.7-0.3,1.1-0.9,1.4l-13.3,7.3l0.2,1.6l3.6,1l10.5,3.2c0.7,0.2,1.4,0.6,1.5,1.2l0.1,0.7
		l0.8-0.1c-0.1-1.1-0.3-1.9-0.3-2.6c-0.1-0.7-0.1-1.5-0.2-2.6l-0.8,0.1l0,1.2c0,0.4-0.4,0.9-1.3,0.7l-2.7-0.7L46.2,327.7z
		 M39.3,331.3l5.6-3l0.5,4.7L39.3,331.3z"/>
	<path class="st0" d="M49.6,300.4c1,0.1,1.6,0.2,1.9,0.1c0.2-0.1,0.3-0.3,0.4-0.9l0.2-0.8l0.9,0.1c-0.2,0.9-0.4,2.2-0.6,3.5
		c-0.2,1.4-0.3,2.6-0.4,3.6l-0.9-0.1l0-0.9c0-0.6,0-0.9-0.2-1c-0.3-0.2-0.9-0.3-1.8-0.4l-9.4-1.3l0,0l9.1,6c0.9,0.6,2,1.3,2.8,1.8
		l-0.1,0.8c-0.7,0.1-1.3,0.4-2,0.6l-11.6,3.7l0,0l9.5,1.3c1,0.1,1.6,0.2,1.9,0.1c0.2-0.1,0.4-0.3,0.5-0.9l0.2-0.8l0.8,0.1
		c-0.1,0.9-0.3,1.7-0.4,2.6c-0.1,0.9-0.2,1.8-0.3,2.6l-0.8-0.1l0-0.9c0-0.6,0-0.8-0.3-1c-0.3-0.2-0.9-0.3-1.8-0.4l-9.3-1.3
		c-1-0.1-1.6-0.2-1.9-0.1c-0.2,0.1-0.4,0.3-0.5,0.9l-0.2,0.8l-0.8-0.1c0.1-0.9,0.3-1.8,0.4-2.7c0.1-0.9,0.2-1.8,0.3-2.8
		c1-0.3,2.8-0.9,3.9-1.2l8-2.6l-8.1-5.4c-0.8-0.5-1.7-1-2.4-1.5c0.2-1.1,0.3-2,0.4-2.6c0.1-0.7,0.2-1.5,0.3-2.7l0.8,0.1l0,0.9
		c0,0.6,0.1,0.8,0.3,1c0.3,0.2,0.9,0.3,1.8,0.4L49.6,300.4z"/>
	<path class="st0" d="M47.1,290.4c0.2-0.5,0.4-1,0.6-1.4l0.5-1.4c0.3-0.8,0.4-1.2,0-1.4l-1.2-0.6l0.3-0.9c0.8,0.3,1.5,0.6,2.3,0.9
		c0.8,0.3,1.6,0.5,2.4,0.8l-0.3,0.9l-1.1-0.3c-0.6-0.2-1,0.2-1.3,0.9l-0.5,1.4c-0.2,0.5-0.3,1-0.5,1.5l5.8,2.1
		c0.4-0.9,0.7-1.8,1.1-2.8c0.4-1,0.8-2.7,0.6-2.8l-1.9-1.2l0.3-0.8l3.3,1.5l0.1,0.2c-0.4,1.4-1.3,4-1.9,5.4c-0.3,0.9-0.7,1.8-1,2.6
		c-0.3,0.9-0.6,1.8-0.9,2.6l-0.5-0.2l-0.1-0.8c-0.1-0.4-0.4-0.6-1.1-0.9l-9.7-3.5c-0.9-0.3-1.5-0.5-1.8-0.5c-0.3,0-0.4,0.2-0.7,0.8
		l-0.4,0.8l-0.8-0.3c0.3-0.7,0.5-1.3,0.7-1.9c0.2-0.6,0.4-1.1,0.6-1.5c0.7-2,1.2-3.5,1.7-4.8c0.4-1.2,0.8-2.2,1.2-3.1l0.2-0.1l3,1.4
		l-0.3,0.8l-1.7-0.4c-0.3-0.1-1,1.3-1.3,2.3c-0.3,0.9-0.7,1.9-0.9,2.8L47.1,290.4z"/>
	<path class="st0" d="M48.3,277.7c-0.8-0.5-1.4-0.8-1.7-0.8c-0.3,0-0.5,0.1-0.8,0.6l-0.5,0.7l-0.7-0.4c0.8-1.3,1.4-2.3,2-3.3
		c0.8-1.4,1.5-2.7,2.3-4.1c1.1-2.1,2.9-3.6,5.2-2.2c1.8,1,2.2,3,1.8,5l7.6-0.4c0.3,0,0.6-0.1,1-0.2c0.2-0.1,0.5-0.3,0.8-0.7l0.8,0.5
		c-0.4,0.6-0.8,1.3-1.2,1.9c-0.3,0.6-0.7,1.2-1,1.8l-9.5,0.5l-0.3-0.4c1.2-1.7,0.9-3.8-1-4.9c-1.6-0.9-3.2-0.3-4.1,1.2
		c-0.2,0.4-0.5,1-0.6,1.4l9.7,5.6c0.8,0.5,1.4,0.8,1.7,0.8c0.2,0,0.4-0.2,0.8-0.7L61,279l0.8,0.5c-0.5,0.8-1.2,1.9-1.9,3.1
		c-0.7,1.2-1.3,2.3-1.7,3.1l-0.8-0.5l0.4-0.8c0.3-0.5,0.3-0.8,0.2-1c-0.2-0.3-0.7-0.6-1.5-1.1L48.3,277.7z"/>
	<path class="st0" d="M67.3,265.9c0.8,0.6,1.3,1,1.6,1c0.2,0,0.4-0.1,0.8-0.5l0.6-0.6l0.7,0.6c-0.6,0.7-1.4,1.7-2.3,2.8
		c-0.9,1.1-1.6,2.1-2.2,2.9l-0.7-0.6l0.5-0.7c0.3-0.5,0.4-0.8,0.3-0.9c-0.1-0.3-0.6-0.7-1.4-1.3l-7.4-5.9c-0.8-0.6-1.3-1-1.6-1
		c-0.2,0-0.4,0.1-0.8,0.5l-0.6,0.6l-0.7-0.6c0.6-0.7,1.4-1.7,2.3-2.8c0.8-1.1,1.6-2.1,2.2-2.8l0.7,0.6l-0.5,0.7
		c-0.3,0.5-0.4,0.8-0.3,0.9c0.1,0.3,0.6,0.7,1.4,1.3L67.3,265.9z"/>
	<path class="st0" d="M81.7,254.6c-0.5,1.8-1.7,3.3-3,4.6c-3.8,3.6-8.7,4.1-12.5,0.1c-3.6-3.9-2.3-8.8,1.3-12.1
		c1.4-1.3,2.6-2.2,4.9-3.1l0.3,0.1c0.4,0.8,1.4,2.1,2,2.9l-0.7,0.6l-1.4-1.4c-1.6-0.1-3,0.6-4.1,1.7c-2.8,2.6-2.4,6,0.1,8.7
		c2.9,3.1,6.8,3.6,10,0.7c1-0.9,2-2.6,2.4-3.9l0.4,0L81.7,254.6z"/>
	<path class="st0" d="M89.2,245.1l2.3,1.7c0.6,0.5,0.7,1,0.4,1.2l-1,0.7l0.5,0.7c1.3-0.8,2.2-1.5,3-1.9c0.8-0.5,1.7-1,3.1-1.8
		l-0.5-0.7l-0.5,0.2c-0.7,0.3-1.1,0.2-1.6-0.2l-12.5-8.7l-1.4,0.9l0.7,3.7l1.8,10.8c0.1,0.7,0.1,1.5-0.4,1.9l-0.6,0.4l0.5,0.7
		c0.9-0.6,1.6-1.1,2.2-1.4c0.6-0.4,1.3-0.8,2.3-1.3l-0.5-0.7l-1,0.5c-0.4,0.2-1,0.1-1.2-0.8l-0.5-2.7L89.2,245.1z M82.9,240.6
		l5.1,3.7l-4,2.5L82.9,240.6z"/>
	<path class="st0" d="M95.3,233c-0.3-0.9-0.6-1.5-0.8-1.7c-0.2-0.2-0.4-0.2-1-0.1l-0.8,0.2l-0.3-0.8c0.9-0.3,1.8-0.6,2.6-0.9
		c0.6-0.2,1.2-0.5,1.8-0.7c1.1,0.7,2.2,1.5,3.3,2.1l9.6,5.5l-2.8-7.8c-0.3-0.9-0.6-1.5-0.8-1.7c-0.2-0.2-0.4-0.2-1-0.1l-0.8,0.2
		l-0.3-0.8c0.8-0.3,1.7-0.5,2.5-0.8c0.8-0.3,1.6-0.6,2.5-0.9l0.3,0.8l-0.8,0.4c-0.6,0.2-0.7,0.4-0.8,0.7c0,0.3,0.2,0.9,0.5,1.8
		l3.5,9.9c0.3,0.8,0.6,1.5,0.8,2.2l-0.1,0.1l-1.9,0.4c-1.2-0.7-2.5-1.4-3.7-2.1l-10.1-6l0,0l3,8.5c0.3,0.9,0.6,1.5,0.8,1.7
		c0.2,0.2,0.4,0.2,1,0.1l0.8-0.2l0.3,0.8c-0.8,0.3-1.7,0.5-2.5,0.8c-0.8,0.3-1.7,0.6-2.5,1l-0.3-0.8l0.8-0.4
		c0.6-0.2,0.7-0.4,0.8-0.7c0-0.3-0.2-0.9-0.5-1.8L95.3,233z"/>
	<path class="st0" d="M121.7,225.7c-0.1-1-0.1-1.6-0.3-1.9c-0.1-0.2-0.4-0.3-1-0.3l-0.9,0l-0.1-0.9c1,0,2.2-0.1,3.6-0.2
		c1.4-0.1,2.6-0.2,3.6-0.3l0.1,0.9l-0.8,0.1c-0.6,0.1-0.8,0.2-0.9,0.4c-0.1,0.3-0.1,0.9,0,1.9l0.3,4.3c0,0.1,0.1,0.1,0.2,0.1
		l4.1-4.5c0.5-0.6,1.2-1.4,1.7-2.1c0.2-0.3,0.3-0.6,0.3-0.9l0-0.6c0.7,0,1.4,0,2.1-0.1c0.7,0,1.4-0.1,2.1-0.2l0.1,0.9
		c-1,0.2-1.8,0.3-2.5,0.9l-4.8,5.1l6.6,6.8c0.5,0.5,1.2,1.1,2.2,1l0.1,0.9c-0.8,0-1.5,0-2.3,0.1c-0.8,0.1-1.6,0.1-2.3,0.2l-5.2-5.4
		c-0.6-0.6-1.4-1.5-1.9-1.7c-0.2,0-0.2,0.1-0.2,0.2l0.3,4.2c0.1,1,0.1,1.6,0.3,1.9c0.1,0.2,0.4,0.3,1,0.3l0.9,0l0.1,0.9
		c-0.9,0-2.2,0.1-3.6,0.2c-1.4,0.1-2.6,0.2-3.6,0.3l-0.1-0.9l0.8-0.1c0.6-0.1,0.8-0.2,0.9-0.4c0.1-0.3,0.1-0.9,0-1.9L121.7,225.7z"
		/>
	<path class="st0" d="M144,229.4c0.5,0.1,1,0.2,1.5,0.2l1.5,0.2c0.8,0.1,1.3,0.1,1.4-0.3l0.3-1.3l0.9,0.1c-0.1,0.8-0.3,1.6-0.4,2.4
		c-0.1,0.8-0.2,1.7-0.2,2.5l-0.9-0.1V232c0-0.7-0.4-0.9-1.2-1l-1.5-0.2c-0.5-0.1-1-0.1-1.5-0.1l-0.7,6.1c1,0.2,1.9,0.3,2.9,0.4
		c1.1,0.1,2.8,0.1,2.8-0.1l0.8-2.1l0.9,0.1l-0.7,3.6l-0.1,0.2c-1.5-0.1-4.2-0.4-5.6-0.6c-0.9-0.1-1.9-0.3-2.8-0.4
		c-1-0.1-1.9-0.2-2.8-0.3l0.1-0.5l0.8-0.3c0.4-0.2,0.5-0.5,0.6-1.2l1.2-10.3c0.1-1,0.2-1.6,0.1-1.9c-0.1-0.2-0.3-0.4-0.9-0.5
		l-0.8-0.2l0.1-0.9c0.8,0.1,1.4,0.2,2,0.3c0.6,0.1,1.1,0.2,1.6,0.2c2.2,0.3,3.7,0.4,5,0.5c1.3,0.1,2.3,0.3,3.3,0.5l0.1,0.2l-0.7,3.2
		l-0.8-0.1l0-1.7c0-0.4-1.5-0.6-2.6-0.7c-1-0.1-2-0.2-2.9-0.3L144,229.4z"/>
	<path class="st0" d="M156.7,227.6c0.3-0.9,0.5-1.5,0.4-1.8c0-0.3-0.2-0.4-0.8-0.7l-0.8-0.3l0.3-0.8c0.9,0.3,1.7,0.6,2.6,0.9
		c0.6,0.2,1.2,0.4,1.9,0.5c0.4,1.2,0.8,2.5,1.3,3.7l4.3,10.2l2.5-7.9c0.3-0.9,0.5-1.5,0.4-1.8c0-0.3-0.2-0.4-0.8-0.7l-0.8-0.3
		l0.3-0.8c0.8,0.3,1.7,0.6,2.5,0.9c0.8,0.3,1.7,0.5,2.5,0.7l-0.3,0.8l-0.8-0.2c-0.6-0.1-0.8-0.1-1,0.1c-0.2,0.2-0.4,0.8-0.7,1.7
		l-3.2,10c-0.2,0.8-0.5,1.6-0.6,2.2l-0.2,0l-1.7-0.9c-0.6-1.3-1.2-2.6-1.7-3.9l-4.4-10.9l0,0l-2.8,8.6c-0.3,0.9-0.5,1.5-0.4,1.8
		c0,0.3,0.2,0.4,0.8,0.7l0.8,0.3l-0.3,0.8c-0.8-0.3-1.7-0.6-2.5-0.9c-0.8-0.3-1.7-0.5-2.5-0.7l0.3-0.8l0.8,0.2
		c0.6,0.1,0.8,0.1,1-0.1c0.2-0.2,0.4-0.8,0.7-1.7L156.7,227.6z"/>
	<path class="st0" d="M176.5,234.8c0.5-0.8,0.8-1.4,0.8-1.7c0-0.3-0.1-0.5-0.6-0.8l-0.7-0.5l0.4-0.7c0.8,0.5,1.6,1,2.4,1.5
		c0.6,0.3,1.1,0.6,1.7,0.9c0.2,1.3,0.3,2.6,0.5,3.9l2,10.9l4.2-7.1c0.5-0.8,0.8-1.4,0.8-1.7c0-0.3-0.1-0.5-0.6-0.8l-0.7-0.5l0.4-0.7
		c0.7,0.5,1.5,1,2.3,1.4c0.8,0.4,1.5,0.9,2.3,1.3l-0.4,0.7l-0.8-0.4c-0.5-0.3-0.8-0.3-1-0.1c-0.3,0.2-0.6,0.7-1.1,1.5l-5.3,9
		c-0.4,0.7-0.8,1.4-1.1,2.1h-0.2l-1.5-1.2c-0.3-1.4-0.6-2.8-0.8-4.2l-1.9-11.6l0,0l-4.6,7.8c-0.5,0.8-0.8,1.4-0.8,1.7
		c0,0.3,0.1,0.5,0.6,0.8l0.7,0.5l-0.4,0.7c-0.7-0.5-1.5-0.9-2.2-1.4c-0.8-0.4-1.6-0.9-2.3-1.3l0.4-0.7l0.8,0.4
		c0.5,0.3,0.8,0.3,1,0.1c0.3-0.2,0.6-0.7,1.1-1.5L176.5,234.8z"/>
	<path class="st0" d="M193.9,251.1c0.4,0.4,0.8,0.7,1.1,1.1l1.1,1c0.6,0.5,1,0.8,1.3,0.5l1-0.9l0.7,0.6c-0.6,0.6-1.1,1.2-1.7,1.8
		c-0.6,0.6-1.1,1.3-1.6,1.9l-0.7-0.6l0.7-1c0.4-0.5,0.2-1-0.4-1.5l-1.1-1c-0.4-0.3-0.8-0.7-1.2-1l-4.1,4.6c0.7,0.7,1.4,1.4,2.2,2
		c0.8,0.7,2.2,1.7,2.4,1.6l1.8-1.3l0.7,0.6l-2.6,2.6l-0.2,0.1c-1.2-0.9-3.2-2.7-4.3-3.7c-0.7-0.6-1.4-1.3-2.1-1.9
		c-0.7-0.6-1.5-1.2-2.1-1.8l0.4-0.4l0.8,0.2c0.4,0.1,0.7-0.1,1.2-0.7l6.8-7.8c0.6-0.7,1-1.2,1.1-1.5c0.1-0.2,0-0.5-0.5-0.9l-0.6-0.6
		l0.6-0.6c0.6,0.5,1.1,1,1.5,1.4c0.5,0.4,0.8,0.8,1.2,1.1c1.6,1.4,2.8,2.4,3.8,3.3c1,0.8,1.7,1.5,2.5,2.3l0,0.2l-2.4,2.3l-0.6-0.6
		l1-1.4c0.2-0.3-0.9-1.4-1.7-2.1c-0.7-0.7-1.5-1.3-2.3-1.9L193.9,251.1z"/>
	<path class="st0" d="M198.6,266.4c0.6,0.8,1.2,1.6,1.8,2.3c0.7,0.8,1.9,2,2.1,1.9l2.2-1.1l0.6,0.7l-3.1,2.2l-0.2,0
		c-1-1.1-2.8-3.2-3.7-4.3c-0.6-0.7-1.2-1.5-1.8-2.2c-0.6-0.7-1.3-1.5-1.8-2.1l0.4-0.3l0.8,0.3c0.4,0.2,0.8,0,1.3-0.5l8-6.6
		c0.7-0.6,1.2-1,1.3-1.3c0.1-0.2,0-0.4-0.4-0.9l-0.5-0.7l0.7-0.6c0.6,0.7,1.4,1.8,2.2,2.8c0.9,1.1,1.7,2,2.3,2.7l-0.7,0.6l-0.6-0.6
		c-0.4-0.4-0.6-0.6-0.8-0.5c-0.3,0.1-0.8,0.4-1.5,1.1L198.6,266.4z"/>
	<path class="st0" d="M212.8,290.6c-1.6-1-2.7-2.6-3.5-4.2c-2.3-4.7-1.3-9.5,3.6-11.9c4.8-2.3,9.1,0.4,11.2,4.8
		c0.8,1.7,1.4,3.2,1.5,5.6l-0.2,0.2c-0.9,0.2-2.5,0.7-3.4,1.1l-0.4-0.8l1.7-1c0.6-1.5,0.3-3-0.4-4.4c-1.7-3.5-5-4.1-8.3-2.5
		c-3.8,1.8-5.5,5.4-3.6,9.3c0.6,1.2,1.8,2.7,3,3.5l-0.1,0.4L212.8,290.6z"/>
	<path class="st0" d="M215.1,297c0.2,0.9,0.5,1.9,0.7,2.9c0.3,1,1,2.6,1.1,2.6l2.4-0.1l0.2,0.9l-3.8,0.8l-0.2-0.1
		c-0.5-1.4-1.2-4-1.6-5.4c-0.2-0.9-0.4-1.8-0.7-2.8c-0.3-0.9-0.6-1.8-0.8-2.7l0.5-0.1l0.6,0.6c0.3,0.3,0.7,0.3,1.4,0.1l10-2.8
		c0.9-0.3,1.5-0.5,1.8-0.7c0.2-0.1,0.2-0.4,0.1-1l-0.2-0.8l0.9-0.3c0.2,0.9,0.5,2.2,0.9,3.5c0.4,1.3,0.8,2.5,1,3.4l-0.9,0.3
		l-0.3-0.8c-0.2-0.6-0.4-0.8-0.6-0.8c-0.3-0.1-0.9,0.1-1.8,0.4L215.1,297z"/>
	<path class="st0" d="M228.7,305.7c1-0.1,1.6-0.2,1.8-0.3c0.2-0.1,0.3-0.4,0.3-1l0-0.9l0.9-0.1c0.1,0.9,0.1,2.2,0.3,3.6
		c0.1,1.4,0.3,2.6,0.4,3.6l-0.9,0.1l-0.1-0.8c-0.1-0.6-0.2-0.8-0.5-0.9c-0.3-0.1-0.9-0.1-1.9,0l-5.7,0.5c-3.2,0.3-5.3,0.7-4.9,4.6
		c0.4,3.8,2.5,4.1,5.8,3.8l5.5-0.5c1-0.1,1.6-0.2,1.8-0.3c0.2-0.1,0.3-0.4,0.3-1l0-0.9l0.9-0.1c0.1,0.9,0.1,1.8,0.2,2.7
		c0.1,0.9,0.2,1.7,0.3,2.6l-0.9,0.1l-0.1-0.8c-0.1-0.6-0.2-0.8-0.5-0.9c-0.3-0.1-0.9-0.1-1.9,0l-6.7,0.6c-4.2,0.4-6.4-1.7-6.7-5.8
		c-0.4-4.3,1.3-6.7,3.9-7L228.7,305.7z"/>
	<path class="st0" d="M232.2,323.8l-0.2,0.8c-0.1,0.6-0.2,0.8-0.5,0.9c-0.3,0.1-0.9,0.1-1.9,0l-10.3-1c-0.7-0.1-1.1-0.2-1.3-0.6
		l-0.3-0.8l-0.5-0.1c-0.1,0.9-0.1,1.8-0.2,2.8c-0.1,1.1-0.3,2.2-0.4,3.2c-0.5,3.7,1.5,6.6,4.3,6.9c2.7,0.3,3.9-1.3,4.3-4.3l0,0
		c0.5,2.2,1.1,4.2,3.4,4.5c2.6,0.3,3.3-2,3.5-4.1c0.2-1.8,0.2-3.1,0.4-4.7c0.1-0.9,0.3-2.1,0.4-3.6L232.2,323.8z M231.3,328.9
		c0,0.5,0,1,0,1.4c-0.2,1.7-0.9,2.6-2.7,2.4c-2.2-0.2-2.7-1.6-2.5-3.6l0.1-0.7L231.3,328.9z M224.9,328.3l-0.1,0.7
		c-0.2,2.3-1.1,3.7-3.7,3.5c-2-0.2-3.4-1.1-3.2-3.6c0-0.4,0.1-0.8,0.2-1.2L224.9,328.3z"/>
</g>
<polygon class="st0" points="72.2,384.8 78.2,390.1 77.3,391.1 72.5,386.9 70.2,389.5 74.4,393.2 73.5,394.3 69.3,390.6 65.8,394.5 
	64.7,393.5 "/>
<g>
	<path class="st0" d="M82.6,404c1-0.5,1.9-1.3,2.6-2.3c0.7-1.1,1-2.2,0.9-3.3c-0.1-1.1-0.7-1.9-1.7-2.6c-1-0.7-2-0.8-3.1-0.6
		c-1.1,0.3-2,1.1-2.9,2.4c-0.7,1.1-1,2.1-1,3.2c0.1,1.1,0.7,2,1.9,2.8C80.5,404.3,81.6,404.5,82.6,404 M87.8,398.6
		c0.1,1.3-0.3,2.6-1.2,3.9c-0.9,1.4-2.1,2.4-3.4,2.9c-1.6,0.6-3.2,0.3-4.7-0.7c-1.5-1-2.3-2.2-2.5-3.7c-0.1-1.4,0.3-2.9,1.2-4.3
		c0.9-1.3,1.9-2.2,3.1-2.7c1.6-0.6,3.2-0.4,4.8,0.6C86.8,395.6,87.7,397,87.8,398.6"/>
	<path class="st0" d="M94.2,400.2l-3,6.4c-0.4,0.8-0.5,1.4-0.5,2.1c0.1,1,0.6,1.7,1.6,2.1c1.2,0.6,2.2,0.5,3-0.1
		c0.4-0.3,0.8-0.9,1.2-1.6l3-6.4l1.4,0.7l-2.7,5.8c-0.6,1.3-1.2,2.2-1.9,2.7c-1.2,1-2.7,1-4.5,0.2c-1.8-0.8-2.7-2-2.7-3.6
		c0-0.8,0.3-1.9,0.9-3.2l2.7-5.8L94.2,400.2z"/>
</g>
<polygon class="st0" points="104.7,404.8 106.4,405.3 109.2,415.9 111.9,407 113.3,407.5 109.9,418.4 108.3,417.9 105.4,407.3 
	102.7,416.2 101.3,415.7 "/>
<g>
	<path class="st0" d="M120,419c0.5,0.1,0.9,0.1,1.3,0c0.6-0.1,1.1-0.4,1.6-0.9c0.4-0.4,0.7-1,0.9-1.7c0.1-0.4,0.2-0.8,0.3-1.2
		c0.2-1.4,0.1-2.5-0.3-3.4c-0.4-0.9-1.2-1.4-2.5-1.6l-2.7-0.4l-1.3,8.7L120,419z M117.3,408.4l4.5,0.7c1.5,0.2,2.6,1,3.3,2.2
		c0.6,1.1,0.8,2.4,0.5,4c-0.2,1.2-0.6,2.3-1.2,3.2c-1,1.6-2.5,2.3-4.4,2l-4.5-0.7L117.3,408.4z"/>
</g>
<polygon class="st0" points="130.1,410 138.4,409.9 138.4,411.3 131.6,411.4 131.7,414.9 138,414.8 138,416.1 131.7,416.2 
	131.8,420.1 138.7,420 138.7,421.4 130.3,421.5 "/>
<g>
	<path class="st0" d="M148.1,419.1c0.5-0.1,0.9-0.2,1.2-0.3c0.6-0.3,1-0.7,1.3-1.4c0.2-0.5,0.4-1.1,0.4-1.8c0-0.4,0-0.8-0.1-1.2
		c-0.2-1.4-0.6-2.5-1.3-3.2c-0.7-0.7-1.6-1-2.8-0.8l-2.7,0.4l1.2,8.7L148.1,419.1z M142.5,409.7l4.5-0.6c1.5-0.2,2.8,0.2,3.8,1.2
		c0.9,0.9,1.5,2.1,1.7,3.7c0.2,1.2,0.1,2.3-0.2,3.4c-0.5,1.8-1.8,2.9-3.7,3.1L144,421L142.5,409.7z"/>
	<path class="st0" d="M163.5,409l-0.4-1c0.9-0.4,1.5-0.8,1.8-1.2c0.3-0.4,0.4-1,0.3-1.8l1-0.4l3.7,10.5l-1.4,0.5l-2.6-7.5L163.5,409
		z"/>
	<path class="st0" d="M180.8,408.7c0.2-0.5,0.2-1.1-0.1-1.7c-0.3-0.6-0.8-1-1.3-1.2c-0.6-0.1-1.2-0.1-1.8,0.2
		c-0.6,0.3-1,0.7-1.2,1.2c-0.2,0.5-0.2,1.1,0.1,1.7c0.3,0.5,0.7,0.9,1.2,1.1c0.5,0.2,1.2,0.1,1.9-0.2
		C180.2,409.6,180.6,409.2,180.8,408.7 M178.1,403.9c0.2-0.5,0.1-0.9-0.1-1.3c-0.2-0.4-0.5-0.6-1-0.8c-0.5-0.2-1-0.1-1.6,0.2
		c-0.6,0.3-1,0.7-1.1,1.1s-0.1,0.9,0.1,1.3c0.2,0.5,0.6,0.8,1.1,0.8c0.5,0.1,1,0,1.4-0.2C177.6,404.7,178,404.4,178.1,403.9
		 M174.5,406.2c-0.6-0.2-1-0.6-1.3-1.2c-0.4-0.7-0.4-1.5-0.1-2.3c0.3-0.8,0.9-1.4,1.9-1.9c1-0.5,1.8-0.6,2.6-0.4
		c0.8,0.2,1.4,0.7,1.7,1.4c0.3,0.6,0.4,1.2,0.3,1.8c-0.1,0.3-0.2,0.7-0.5,1c0.5,0,0.9,0,1.3,0.2c0.7,0.3,1.2,0.7,1.6,1.5
		c0.4,0.9,0.5,1.8,0.2,2.7c-0.3,0.9-1,1.6-2.1,2.2c-1,0.5-1.9,0.6-2.9,0.4c-0.9-0.2-1.6-0.8-2.1-1.8c-0.3-0.6-0.4-1.2-0.3-1.7
		c0.1-0.6,0.3-1.1,0.8-1.6C175.2,406.4,174.8,406.3,174.5,406.2"/>
	<path class="st0" d="M191,402.7c0.2-0.5,0.1-1.1-0.3-1.7c-0.4-0.6-0.9-0.9-1.5-1c-0.6-0.1-1.1,0.1-1.7,0.5
		c-0.6,0.4-0.9,0.8-1.1,1.4c-0.1,0.6,0,1.1,0.3,1.7c0.3,0.5,0.8,0.8,1.3,0.9c0.6,0.1,1.2,0,1.8-0.5
		C190.5,403.6,190.9,403.2,191,402.7 M187.8,398.2c0.1-0.5,0-0.9-0.2-1.3c-0.2-0.3-0.6-0.6-1-0.7c-0.5-0.1-1,0-1.6,0.4
		c-0.6,0.4-0.9,0.8-0.9,1.2c-0.1,0.5,0,0.9,0.3,1.3c0.3,0.4,0.7,0.7,1.2,0.7c0.5,0,1-0.1,1.4-0.4
		C187.4,399.1,187.7,398.7,187.8,398.2 M184.5,400.9c-0.6-0.1-1-0.5-1.4-1c-0.5-0.7-0.6-1.5-0.4-2.3c0.2-0.8,0.7-1.6,1.6-2.2
		c0.9-0.6,1.7-0.8,2.6-0.7c0.8,0.1,1.4,0.5,1.8,1.2c0.4,0.6,0.5,1.1,0.5,1.7c0,0.3-0.2,0.7-0.4,1.1c0.5-0.1,0.9-0.1,1.3,0
		c0.7,0.2,1.3,0.6,1.7,1.3c0.5,0.8,0.7,1.7,0.5,2.6c-0.2,0.9-0.8,1.7-1.8,2.4c-0.9,0.6-1.8,0.9-2.8,0.8c-1-0.1-1.7-0.6-2.4-1.5
		c-0.4-0.6-0.5-1.1-0.5-1.7c0-0.6,0.2-1.1,0.6-1.7C185.1,401,184.8,401,184.5,400.9"/>
</g>
<path class="st0" d="M198.2,394l-3.3-3.8l0.6,6.2L198.2,394z M200.8,397l-1.8-2.1l-3.7,3.2l-0.9-1l-0.8-8.7l0.9-0.8l4.7,5.5l1.2-1.1
	l0.8,0.9l-1.2,1.1l1.8,2.1L200.8,397z"/>
</svg>
